<svg xmlns="http://www.w3.org/2000/svg" width="174" height="32" fill="none"><g fill="#424BD0" clip-path="url(#a)"><path d="M97.66 23.564h3.721V9.525H97.66v14.039zm0-16.228h3.721V3.997H97.66v3.34zm6.12 20.826h3.722v-6.185h.054c.793 1.204 2.08 1.998 4.05 1.998 3.612 0 6.075-2.874 6.075-7.417 0-4.378-2.38-7.416-6.102-7.416-1.916 0-3.23.904-4.132 2.135h-.083V9.525h-3.584v18.636zm7.032-7.28c-2.216 0-3.393-1.67-3.393-4.214 0-2.518.93-4.515 3.257-4.515 2.299 0 3.229 1.86 3.229 4.515 0 2.654-1.204 4.214-3.093 4.214zm14.293 3.093c3.503 0 5.911-1.697 5.911-4.516 0-3.284-2.599-3.94-4.953-4.433-1.998-.41-3.858-.52-3.858-1.724 0-1.013.957-1.56 2.408-1.56 1.587 0 2.545.547 2.709 2.052h3.366c-.273-2.818-2.326-4.652-6.02-4.652-3.202 0-5.72 1.45-5.72 4.488 0 3.065 2.463 3.75 4.981 4.242 1.915.383 3.694.52 3.694 1.86 0 .986-.93 1.616-2.572 1.616-1.67 0-2.819-.712-3.065-2.327h-3.448c.219 2.983 2.49 4.954 6.567 4.954zm20.041-.411V9.526h-3.722v8.1c0 1.86-1.067 3.174-2.818 3.174-1.588 0-2.326-.903-2.326-2.545v-8.73h-3.695v9.36c0 3.065 1.752 5.062 4.872 5.062 1.97 0 3.065-.738 4.022-2.025h.083v1.642h3.584zm2.408 0h3.722V15.41c0-1.86 1.012-3.065 2.518-3.065 1.368 0 2.161.821 2.161 2.408v8.812h3.722V15.41c0-1.86.958-3.065 2.517-3.065 1.369 0 2.163.821 2.163 2.408v8.812h3.722v-9.441c0-3.065-1.67-4.98-4.626-4.98-1.778 0-3.256.93-4.214 2.462h-.054c-.684-1.478-2.108-2.463-3.887-2.463-1.942 0-3.31.986-4.077 2.272h-.082v-1.89h-3.585v14.04zm-146.896 0H4.38V3.997H.658v19.567zm12.822.411c4.351 0 7.334-3.23 7.334-7.417 0-4.187-2.983-7.416-7.334-7.416-4.351 0-7.334 3.23-7.334 7.416 0 4.187 2.983 7.417 7.334 7.417zm0-2.847c-2.299 0-3.558-1.833-3.558-4.57 0-2.736 1.26-4.597 3.558-4.597 2.271 0 3.557 1.86 3.557 4.597s-1.286 4.57-3.557 4.57zm15.248 7.225c2.08 0 3.886-.493 5.063-1.587 1.04-.958 1.67-2.299 1.67-4.27V9.527h-3.585v1.477h-.055c-.849-1.176-2.135-1.86-3.886-1.86-3.558 0-6.075 2.681-6.075 6.868 0 4.242 3.065 6.705 6.184 6.705 1.779 0 2.846-.712 3.667-1.642h.082v1.532c0 1.916-1.012 2.928-3.12 2.928-1.723 0-2.517-.684-2.818-1.56h-3.694c.383 2.737 2.736 4.379 6.567 4.379zm-.054-8.62c-1.916 0-3.175-1.396-3.175-3.777 0-2.353 1.26-3.83 3.147-3.83 2.244 0 3.339 1.75 3.339 3.803 0 2.08-.958 3.804-3.311 3.804zm15.832 4.242c4.351 0 7.334-3.23 7.334-7.417 0-4.187-2.983-7.416-7.334-7.416-4.35 0-7.334 3.23-7.334 7.416 0 4.187 2.983 7.417 7.334 7.417zm0-2.847c-2.298 0-3.557-1.833-3.557-4.57 0-2.736 1.259-4.597 3.557-4.597 2.272 0 3.558 1.86 3.558 4.597s-1.286 4.57-3.558 4.57zM169.43 7.221c0-.63.511-1.14 1.141-1.14h2.28a1.14 1.14 0 1 1 0 2.28h-2.28a1.14 1.14 0 0 1-1.141-1.14z"/><path fill-rule="evenodd" d="M74.41 0c8.817 0 15.964 7.147 15.964 15.963 0 8.816-7.147 15.963-15.963 15.963-8.817 0-15.964-7.147-15.964-15.963C58.447 7.147 65.594 0 74.412 0zm-.576 1.194c-1.821.256-3.556 1.72-4.902 4.167a16.62 16.62 0 0 0-1.05 2.341 26.721 26.721 0 0 1 5.952-.773V1.194zm-7.3 6.892a18.43 18.43 0 0 1 1.387-3.281c.668-1.213 1.46-2.261 2.352-3.066a14.84 14.84 0 0 0-10.086 10.086c.805-.892 1.853-1.684 3.066-2.352a18.43 18.43 0 0 1 3.28-1.387zm-.384 1.349a26.708 26.708 0 0 0-.773 5.95h-5.735c.256-1.82 1.72-3.554 4.167-4.9.71-.39 1.494-.743 2.341-1.05zm.381 5.95c.048-2.302.38-4.464.928-6.374 1.91-.549 4.072-.88 6.375-.928v2.493a8.493 8.493 0 0 1-4.81 4.81H66.53zm-1.154 1.155h-5.735c.256 1.821 1.72 3.555 4.167 4.901.71.39 1.494.743 2.341 1.05a26.707 26.707 0 0 1-.773-5.951zm2.082 6.375c-.549-1.91-.88-4.072-.928-6.375h2.492a8.493 8.493 0 0 1 4.81 4.81v2.492c-2.302-.047-4.464-.379-6.374-.927zm-.925.925a18.433 18.433 0 0 1-3.281-1.388c-1.213-.667-2.261-1.459-3.066-2.351a14.84 14.84 0 0 0 10.086 10.085c-.892-.804-1.684-1.852-2.352-3.065a18.429 18.429 0 0 1-1.388-3.28zm7.3 6.892c-1.821-.257-3.556-1.72-4.902-4.168a16.62 16.62 0 0 1-1.05-2.34c1.831.46 3.842.73 5.952.773v5.735zm4.715-.546c.892-.804 1.684-1.852 2.351-3.065a18.422 18.422 0 0 0 1.388-3.28c1.198-.383 2.3-.85 3.28-1.389 1.214-.667 2.262-1.459 3.066-2.351A14.841 14.841 0 0 1 78.55 30.186zm2.39-5.962a16.7 16.7 0 0 1-1.05 2.34c-1.346 2.448-3.08 3.911-4.901 4.168v-5.735c2.11-.042 4.12-.314 5.951-.773zm1.732-1.733a16.59 16.59 0 0 0 2.341-1.05c2.448-1.346 3.911-3.08 4.168-4.901h-5.735a26.736 26.736 0 0 1-.774 5.95zm-.38-5.951c-.048 2.303-.38 4.465-.929 6.375-1.91.548-4.072.88-6.374.927v-2.49a8.494 8.494 0 0 1 4.811-4.812h2.491zm1.154-1.154h5.735c-.257-1.821-1.72-3.555-4.168-4.901a16.7 16.7 0 0 0-2.34-1.05c.459 1.83.73 3.84.773 5.95zM81.362 9.01c.55 1.91.88 4.072.928 6.375H79.8a8.493 8.493 0 0 1-4.811-4.812v-2.49c2.302.047 4.464.378 6.374.927zm.926-.925c1.198.381 2.3.848 3.28 1.387 1.214.668 2.262 1.46 3.066 2.352A14.841 14.841 0 0 0 78.55 1.739c.892.805 1.684 1.853 2.351 3.066.539.98 1.007 2.082 1.388 3.28zm-7.3-6.892c1.82.256 3.555 1.72 4.9 4.167.391.71.744 1.494 1.051 2.341a26.713 26.713 0 0 0-5.951-.773V1.194z" clip-rule="evenodd"/></g><defs><clipPath id="a"><path fill="#fff" d="M0 0h174v31.927H0z"/></clipPath></defs></svg>