<svg width="127" height="35" viewBox="0 0 127 35" fill="none" xmlns="http://www.w3.org/2000/svg">
<path d="M46.3849 25.6863H49.2803L48.8007 23.4424V10.0651H46.031V16.1665C45.1979 15.2021 44.052 14.6363 42.6989 14.6363C39.9289 14.6363 37.7843 16.9213 37.7843 20.2766C37.7843 23.6314 39.9289 25.9169 42.6989 25.9169C44.0735 25.9169 45.2601 25.3297 46.0937 24.3228L46.3849 25.6858V25.6863ZM101.135 17.635C101.697 17.635 102.218 17.7811 102.696 18.1163L104.009 15.1605C103.404 14.7825 102.696 14.6153 102.01 14.6153C100.76 14.6153 99.7188 15.1798 99.053 16.23L98.7608 14.8656H95.9075L96.3657 16.9835V25.6845H99.134V18.7871C99.5089 18.0739 100.217 17.6341 101.134 17.6341V17.635H101.135ZM109.256 23.0022C107.654 23.0022 106.466 21.9332 106.466 20.2762C106.466 18.599 107.654 17.551 109.256 17.551C110.881 17.551 112.047 18.599 112.047 20.2762C112.047 21.9332 110.881 23.0022 109.256 23.0022H109.256ZM40.4703 20.2762C40.4703 18.599 41.6573 17.551 43.2605 17.551C44.8856 17.551 46.0516 18.599 46.0516 20.2762C46.0516 21.9332 44.8856 23.0022 43.2614 23.0022C41.6582 23.0022 40.4703 21.9332 40.4703 20.2762ZM121.523 23.0022C119.92 23.0022 118.733 21.9332 118.733 20.2762C118.733 18.599 119.92 17.551 121.523 17.551C123.147 17.551 124.313 18.599 124.313 20.2762C124.313 21.9332 123.147 23.0022 121.523 23.0022ZM56.0062 17.383C57.443 17.383 58.3803 18.0538 58.6716 19.2908H53.3408C53.6531 18.0538 54.5901 17.383 56.0058 17.383H56.0062ZM89.1386 17.383C90.5762 17.383 91.5136 18.0538 91.8049 19.2908H86.4741C86.7864 18.0538 87.7234 17.383 89.1391 17.383H89.1386ZM75.6242 25.6863H80.0807L82.976 14.8669H79.9563L77.8327 23.6314L75.7083 14.8669H72.7297L75.625 25.6858L75.6242 25.6863ZM68.4808 25.6863H71.2491V14.8665H68.4808V25.6863ZM56.4307 25.8867C57.9725 25.8867 59.4925 25.4666 60.7628 24.6492L59.701 22.2592C58.701 22.7834 57.5976 23.0981 56.4727 23.0981C55.0154 23.0981 53.9948 22.5318 53.5572 21.4834H61.3453C61.4286 21.0852 61.4711 20.687 61.4711 20.2044C61.4711 16.8496 59.1596 14.6061 56.0562 14.6061C52.933 14.6061 50.6421 16.8706 50.6421 20.2464C50.6421 23.6848 52.912 25.8867 56.4315 25.8867H56.4307ZM127 20.2762C127 16.9213 124.668 14.6359 121.523 14.6359C118.378 14.6359 116.046 16.9213 116.046 20.2762C116.046 23.6314 118.378 25.9164 121.522 25.9164C124.668 25.9164 127 23.6314 127 20.2762H127ZM89.5145 25.9164C91.0546 25.9164 92.575 25.4972 93.8466 24.6794L92.7835 22.2881C91.7839 22.8123 90.6801 23.1265 89.5552 23.1265C88.0979 23.1265 87.0773 22.5612 86.6397 21.5119H94.4287C94.5119 21.1137 94.5531 20.7155 94.5531 20.2333C94.5531 16.8784 92.2412 14.635 89.1382 14.635C86.0151 14.635 83.7242 16.899 83.7242 20.2753C83.7242 23.7137 85.9945 25.9156 89.514 25.9156V25.9164H89.5145ZM109.256 25.9164C112.401 25.9164 114.733 23.6314 114.733 20.2762C114.733 16.9213 112.401 14.6359 109.256 14.6359C106.111 14.6359 103.779 16.9213 103.779 20.2762C103.779 23.6314 106.111 25.9164 109.256 25.9164H109.256ZM63.2328 25.6858H66.002V10.0646H63.2324V25.6858H63.2328ZM69.8755 13.377C70.854 13.377 71.604 12.6218 71.604 11.6154C71.604 10.609 70.8549 9.85415 69.8759 9.85415C68.8764 9.85415 68.1264 10.609 68.1264 11.6154C68.1264 12.6218 68.8768 13.3766 69.8764 13.3766L69.8755 13.377ZM22.2934 0.217997L20.7078 15.21L18.0029 2.57037L9.52272 4.36178L12.2262 17.0005L0 19.5822L2.15948 29.6782L23.6596 34.2176L28.5765 23.2468L30.9164 1.11895L22.2925 0.21756L22.2934 0.218435V0.217997ZM15.4996 21.9665C15.0563 22.3699 14.4702 22.3327 13.8482 22.1271C13.2276 21.9223 12.9516 21.1762 13.1868 20.2744C13.362 19.6049 14.1868 19.5043 14.5995 19.4973C14.7563 19.4947 14.9105 19.5262 15.0528 19.5901C15.3445 19.7213 15.8386 20.0014 15.939 20.4284C16.0835 21.0445 15.9442 21.5617 15.5009 21.9652H15.5V21.9661L15.4996 21.9665ZM21.724 22.6622C21.402 23.2179 20.5566 23.2915 19.7248 22.8871C19.1642 22.6141 19.1685 21.9192 19.2299 21.4957C19.2624 21.2646 19.3562 21.0465 19.5014 20.8638C19.7016 20.6118 20.0358 20.2832 20.4222 20.2731C21.0503 20.2565 21.5908 20.5365 21.8961 21.0432C22.2027 21.5482 22.0494 22.1052 21.7266 22.6622H21.724Z" fill="#282943" fill-opacity="0.6"/>
</svg>
