<svg width="16" height="16" fill="none" xmlns="http://www.w3.org/2000/svg" id="svg-1923882921_575"><path d="M9.333 8 7 9.334V6.667L9.333 8Z" fill="#282943" stroke="#282943" stroke-linecap="round" stroke-linejoin="round"></path><path d="M1.333 8.472v-.944c0-1.93 0-2.895.604-3.516s1.554-.648 3.455-.702c.9-.025 1.82-.043 2.608-.043a98 98 0 0 1 2.608.043c1.9.054 2.851.081 3.455.702.604.62.604 1.586.604 3.516v.944c0 1.93 0 2.895-.604 3.516-.604.62-1.554.648-3.455.702-.9.025-1.82.043-2.608.043a96.02 96.02 0 0 1-2.608-.043c-1.901-.054-2.851-.081-3.455-.702-.604-.621-.604-1.586-.604-3.516Z" stroke="#282943"></path></svg>