<svg xmlns="http://www.w3.org/2000/svg" width="128" height="41" fill="none"><g fill="#424BD0" clip-path="url(#a)"><path d="M90.759 37.97c.774 0 1.232-.586 1.232-1.503 0-.951-.492-1.504-1.216-1.504-.414 0-.702.184-.917.475h-.01v-1.502h-.449v3.95h.449v-.375h.01c.233.32.514.46.9.46zm-.033-.376c-.608 0-.907-.48-.907-1.122 0-.618.288-1.127.912-1.127.542 0 .802.486.802 1.127 0 .646-.26 1.122-.807 1.122zm2.023 1.238c.348 0 .57-.122.8-.714l1.223-3.089h-.476l-.653 1.78c-.087.238-.187.558-.187.558h-.01s-.106-.32-.194-.558l-.674-1.78h-.487l1.116 2.775-.11.282c-.11.276-.238.348-.426.348a.628.628 0 0 1-.304-.06h-.022v.397c.122.05.233.061.404.061zm3.168-.945h.752v-3.951h-.752v3.95zm2.59.083c.878 0 1.481-.653 1.481-1.498 0-.846-.602-1.498-1.481-1.498-.878 0-1.481.653-1.481 1.498 0 .846.602 1.498 1.48 1.498zm0-.575c-.464 0-.718-.37-.718-.923 0-.552.254-.928.718-.928.459 0 .718.376.718.928 0 .553-.26.923-.718.923zm3.079 1.459c.421 0 .785-.1 1.022-.32.211-.194.338-.465.338-.863v-2.62h-.724v.3h-.011c-.172-.238-.431-.377-.786-.377-.717 0-1.226.542-1.226 1.388 0 .856.619 1.353 1.25 1.353a.91.91 0 0 0 .739-.331h.018v.31c0 .386-.204.591-.631.591-.348 0-.508-.138-.569-.316h-.746c.077.553.552.885 1.326.885zm-.01-1.74c-.387 0-.642-.282-.642-.764 0-.475.255-.773.636-.773.453 0 .674.353.674.768 0 .42-.194.768-.669.768h.001zm3.197.856c.878 0 1.481-.653 1.481-1.498 0-.846-.603-1.498-1.481-1.498-.879 0-1.481.653-1.481 1.498 0 .846.602 1.498 1.481 1.498zm0-.575c-.464 0-.719-.37-.719-.923 0-.552.255-.928.719-.928.458 0 .718.376.718.928 0 .553-.26.923-.718.923zm1.83.492h.752v-2.835h-.752v2.835zm0-3.277h.752v-.674h-.752v.674zm1.236 4.205h.752v-1.248h.01c.161.244.42.404.818.404.729 0 1.227-.581 1.227-1.498 0-.884-.48-1.498-1.232-1.498a.995.995 0 0 0-.834.432h-.017v-.354h-.724v3.764-.002zm1.42-1.469c-.448 0-.685-.338-.685-.852 0-.508.188-.912.657-.912.465 0 .652.376.652.912 0 .537-.243.852-.624.852zm2.887.624c.707 0 1.193-.343 1.193-.912 0-.663-.525-.795-1.001-.895-.402-.083-.778-.105-.778-.348 0-.204.193-.316.486-.316.321 0 .514.112.547.415h.68c-.055-.57-.469-.939-1.216-.939-.647 0-1.155.292-1.155.906 0 .618.497.757 1.006.857.387.077.746.104.746.375 0 .2-.188.327-.52.327-.336 0-.569-.144-.619-.47h-.695c.043.601.502 1 1.326 1zm4.047-.083v-2.835h-.752v1.636c0 .375-.216.64-.569.64-.32 0-.47-.182-.47-.514v-1.762h-.746v1.89c0 .62.354 1.022.984 1.022.397 0 .619-.149.813-.408h.016v.33h.724zm.486 0h.751V36.24c0-.376.204-.619.508-.619.277 0 .437.166.437.487v1.779h.752V36.24c0-.376.193-.619.509-.619.276 0 .436.166.436.487v1.779h.752V35.98c0-.619-.338-1.006-.934-1.006-.359 0-.658.188-.851.498h-.011a.845.845 0 0 0-.786-.498.928.928 0 0 0-.823.46h-.016v-.382h-.724v2.836-.002zm4.293-35.695c0-1.207.978-2.186 2.185-2.186h1.457a2.186 2.186 0 1 1 0 4.372h-1.457a2.191 2.191 0 0 1-1.546-.64 2.202 2.202 0 0 1-.639-1.546zM59.78 14.576c0 8.046-6.522 14.57-14.57 14.57-8.045 0-14.568-6.524-14.568-14.57C30.642 6.528 37.165.007 45.21.007c8.047 0 14.569 6.521 14.569 14.57zm-31.98-.072c.806 0 1.465.653 1.384 1.454A14.569 14.569 0 1 1 13.234.008c.8-.082 1.454.579 1.454 1.382v11.656c0 .806.652 1.458 1.457 1.458H27.8zm52.377 17.555a4.37 4.37 0 1 1 0 8.742h-7.284a4.371 4.371 0 0 1 0-8.742h7.284zm-4.37-2.914c8.046 0 14.57-6.523 14.57-14.569a14.505 14.505 0 0 0-1.825-7.063l2.407-2.408A2.988 2.988 0 0 0 88.845.007a2.987 2.987 0 0 0-2.111.875l-2.101 2.102A14.505 14.505 0 0 0 75.805.006c-8.045.001-14.567 6.522-14.567 14.57 0 8.046 6.522 14.57 14.568 14.57zm45.165-14.569c0 8.046-6.523 14.57-14.57 14.57-8.046 0-14.57-6.524-14.57-14.57 0-8.048 6.524-14.569 14.57-14.569 8.047 0 14.57 6.522 14.57 14.57z"/></g><defs><clipPath id="a"><path fill="#fff" d="M.119 0h127.503v40.801H.119z"/></clipPath></defs></svg>