<svg width="130" height="40" viewBox="0 0 130 40" fill="none" xmlns="http://www.w3.org/2000/svg">
<rect x="44.7144" width="40" height="40" rx="20" fill="#F9F9FF"/>
<path d="M40.7144 2.05128C40.7144 0.91839 39.796 0 38.6631 0C17.7046 0 0.714355 16.9902 0.714355 37.9487C0.714355 39.0816 1.63275 40 2.76564 40H36.7144C38.9235 40 40.7144 38.2091 40.7144 36V2.05128Z" fill="white"/>
<path d="M89.2858 2.05128C89.2858 0.91839 90.2042 0 91.337 0C112.296 0 129.286 16.9902 129.286 37.9487C129.286 39.0816 128.367 40 127.234 40H93.2858C91.0766 40 89.2858 38.2091 89.2858 36V2.05128Z" fill="white"/>
</svg>
