<svg width="40" height="40" viewBox="0 0 40 40" fill="none" xmlns="http://www.w3.org/2000/svg">
<path d="M1.66675 33.3333V31.6667C1.66675 25.2233 6.89009 20 13.3334 20V20C19.7767 20 25.0001 25.2233 25.0001 31.6667V33.3333" stroke="#424BD0" stroke-width="2.5" stroke-linecap="round"/>
<path d="M21.6667 23.3333V23.3333C21.6667 18.731 25.3977 15 30.0001 15V15C34.6025 15 38.3334 18.731 38.3334 23.3333V24.1667" stroke="#424BD0" stroke-width="2.5" stroke-linecap="round"/>
<path d="M13.3334 20C17.0153 20 20.0001 17.0153 20.0001 13.3334C20.0001 9.65146 17.0153 6.66669 13.3334 6.66669C9.65152 6.66669 6.66675 9.65146 6.66675 13.3334C6.66675 17.0153 9.65152 20 13.3334 20Z" stroke="#424BD0" stroke-width="2.5" stroke-linecap="round" stroke-linejoin="round"/>
<path d="M30 15C32.7614 15 35 12.7614 35 10C35 7.23858 32.7614 5 30 5C27.2386 5 25 7.23858 25 10C25 12.7614 27.2386 15 30 15Z" stroke="#424BD0" stroke-width="2.5" stroke-linecap="round" stroke-linejoin="round"/>
</svg>
