<svg width="16" height="16" viewBox="0 0 16 16" fill="none" xmlns="http://www.w3.org/2000/svg">
<path d="M7.99992 10.6668C9.47268 10.6668 10.6666 9.47292 10.6666 8.00016C10.6666 6.5274 9.47268 5.3335 7.99992 5.3335C6.52716 5.3335 5.33325 6.5274 5.33325 8.00016C5.33325 9.47292 6.52716 10.6668 7.99992 10.6668Z" stroke="white" stroke-linecap="round" stroke-linejoin="round"/>
<path d="M2 10.6667V5.33333C2 3.49238 3.49239 2 5.33333 2H10.6667C12.5076 2 14 3.49239 14 5.33333V10.6667C14 12.5076 12.5076 14 10.6667 14H5.33333C3.49238 14 2 12.5076 2 10.6667Z" stroke="white"/>
<path d="M11.6667 4.34238L11.6756 4.33251" stroke="white" stroke-linecap="round" stroke-linejoin="round"/>
</svg>
