<svg width="116" height="36" viewBox="0 0 116 36" fill="none" xmlns="http://www.w3.org/2000/svg">
<path d="M10.2876 18.2643L8.21446 9.34845H0.981994L0 26.3853H5.59581L5.76727 17.2823L7.84037 26.3853H12.7347L14.8078 17.2823L14.9949 26.3853H20.5907L19.6087 9.34845H12.3762L10.2876 18.2643Z" fill="#282943" fill-opacity="0.6"/>
<path d="M52.6909 19.5681C53.5014 19.0849 55.481 17.8224 55.481 14.4555C55.481 12.7098 54.7172 11.1666 53.3611 10.2314C52.1609 9.38968 50.5866 9 48.42 9H41.0005V26.0368H46.6898V20.4098H47.2665L49.9631 26.0368H56.5098L52.6909 19.5681ZM49.7449 14.7049C49.7449 15.3908 49.4332 15.609 49.1682 15.8116C49.0123 15.9363 48.6694 16.0922 47.9991 16.0922H46.6742V13.3177H47.9836C48.5291 13.3177 48.9032 13.4112 49.1526 13.6138L49.1682 13.6294C49.4176 13.8009 49.7449 14.0191 49.7449 14.7049Z" fill="#282943" fill-opacity="0.6"/>
<path d="M67.2743 9.34845V15.786C67.2743 16.6744 67.3367 17.8747 67.3679 18.4826L62.6449 9.39521L62.6293 9.34845H56.5192V26.3853H62.037V19.9478C62.037 19.0593 61.9747 17.8279 61.9435 17.2356L66.9158 26.3385L66.9314 26.3853H72.8078V9.34845H67.2743Z" fill="#282943" fill-opacity="0.6"/>
<path d="M74.4912 9.34845H80.1805V26.3853H74.4912V9.34845Z" fill="#282943" fill-opacity="0.6"/>
<path d="M92.6036 9.34845V15.786C92.6036 16.6744 92.6659 17.8747 92.6971 18.4826L87.9742 9.39521L87.9586 9.34845H81.8484V26.3853H87.3818V19.9478C87.3818 19.0593 87.3195 17.8279 87.2883 17.2356L92.2606 26.3385L92.2762 26.3853H98.1526V9.34845H92.6036Z" fill="#282943" fill-opacity="0.6"/>
<path d="M107.77 16.0198V20.2595H110.342V21.3818C110.264 21.4753 109.796 21.9429 108.097 21.9429C106.024 21.9429 104.684 20.3374 104.684 17.8591C104.684 15.3807 106.024 13.7752 108.097 13.7752C110.014 13.7752 111.106 14.8663 111.464 15.2248L111.511 15.2716L115.299 12.1074L115.236 12.045L115.111 11.9203C114.457 11.2189 112.446 9.09906 108.082 9.09906C105.619 9.09906 103.374 9.84725 101.769 11.2189C99.9295 12.7776 98.9631 15.069 98.9631 17.8747C98.9631 23.9381 103.483 26.6658 107.973 26.6658C112.446 26.6658 114.457 24.8421 115.782 23.6263L115.875 23.5328V16.0198H107.77Z" fill="#282943" fill-opacity="0.6"/>
<path d="M30.847 27.3984C35.995 27.3984 40.1682 23.2252 40.1682 18.0773C40.1682 12.9294 35.995 8.75613 30.847 8.75613C25.6991 8.75613 21.5259 12.9294 21.5259 18.0773C21.5259 23.2252 25.6991 27.3984 30.847 27.3984Z" fill="#282943" fill-opacity="0.6"/>
<path d="M30.8471 27.4764C25.6721 27.4764 21.448 23.2678 21.448 18.0773C21.448 12.8867 25.6565 8.67819 30.8471 8.67819C36.022 8.67819 40.2462 12.8867 40.2462 18.0773C40.2462 23.2678 36.0376 27.4764 30.8471 27.4764ZM30.8471 8.84965C25.7501 8.84965 21.6039 12.9958 21.6039 18.0929C21.6039 23.1899 25.7501 27.3361 30.8471 27.3361C35.9441 27.3361 40.0903 23.1899 40.0903 18.0929C40.0903 12.9958 35.9441 8.84965 30.8471 8.84965Z" fill="#282943" fill-opacity="0.6"/>
<path d="M2.27577 7.66501H4.6762V2.58359H6.28168V0.681946H0.670288V2.58359H2.27577V7.66501Z" fill="#282943" fill-opacity="0.6"/>
<path d="M9.00935 0.681946H6.62451V7.66501H9.00935V5.13989H10.7239V7.66501H13.1088V0.681946H10.7239V3.16031H9.00935V0.681946Z" fill="#282943" fill-opacity="0.6"/>
<path d="M18.7047 5.09313V3.19149H16.2263V2.59917H18.8605V0.681946H13.8571V7.66501H18.9541V5.7322H16.2263V5.09313H18.7047Z" fill="#282943" fill-opacity="0.6"/>
<path d="M87.4442 31.2641C87.1636 31.0303 86.7116 30.7964 86.1348 30.5938C85.9634 30.5315 85.6984 30.4535 85.4802 30.3912C85.3711 30.36 85.2776 30.3288 85.2152 30.3132L85.1529 30.2977C84.997 30.2509 84.732 30.173 84.732 30.0327C84.732 29.9236 84.7943 29.7989 85.2775 29.7989C85.6828 29.7989 86.4934 30.0171 87.0545 30.5159L87.1324 30.5782L88.1768 28.6454L88.13 28.5986C87.4286 28.0219 86.3531 27.6478 85.3243 27.6478C84.3579 27.6478 83.5318 27.8972 83.0018 28.3337C82.7212 28.5675 82.0822 29.2065 82.0822 30.2665C82.0822 31.2329 82.503 31.7005 82.8148 31.9655C83.1733 32.2616 83.563 32.4175 83.8124 32.511L83.9059 32.5422C84.1241 32.6201 84.7476 32.8228 85.0282 32.9007C85.2931 32.9787 85.5269 33.0566 85.5269 33.228C85.5269 33.4463 85.184 33.4774 85.0282 33.4774C84.6852 33.4774 83.7032 33.228 83.0174 32.6513L82.9395 32.589L81.7393 34.6309L81.8016 34.6777C82.7368 35.3635 83.75 35.722 84.8255 35.722C85.7919 35.722 86.5557 35.5038 87.148 35.0518C87.8027 34.5374 88.1768 33.7892 88.1768 32.9787C88.1924 32.2772 87.943 31.7005 87.4442 31.2641Z" fill="#282943" fill-opacity="0.6"/>
<path d="M91.2786 27.7569H88.5977V35.6285H91.2786V32.776H93.227V35.6285H95.9081V27.7569H93.227V30.547H91.2786V27.7569Z" fill="#282943" fill-opacity="0.6"/>
<path d="M100.522 27.6322C97.9656 27.6322 96.251 29.2689 96.251 31.7005C96.251 34.1321 97.9656 35.7532 100.522 35.7532C103.078 35.7532 104.793 34.1165 104.793 31.7005C104.793 29.2689 103.078 27.6322 100.522 27.6322ZM100.522 33.3683C99.5866 33.3683 98.9476 32.6825 98.9476 31.6537C98.9476 30.625 99.5866 29.9391 100.522 29.9391C101.473 29.9391 102.081 30.6094 102.081 31.6537C102.096 32.6825 101.473 33.3683 100.522 33.3683Z" fill="#282943" fill-opacity="0.6"/>
<path d="M111.433 27.7569H108.783L107.91 31.7784L107.022 27.7569H104.216L106.429 35.5661L106.445 35.6285H109.142L110.108 31.529L111.074 35.6285H113.771L116 27.7569H113.21L112.321 31.7784L111.433 27.7569Z" fill="#282943" fill-opacity="0.6"/>
</svg>
