<svg width="105" height="36" viewBox="0 0 105 36" fill="none" xmlns="http://www.w3.org/2000/svg">
<path d="M55.7312 11.5706C55.5925 11.7388 55.514 11.9266 55.514 12.2531V21.2316H55.4643C55.4643 21.2316 50.55 12.4703 50.3125 12.0653C50.1443 11.778 49.9565 11.5804 49.7092 11.4318C49.4618 11.2938 49.2047 11.2048 48.7106 11.2048H47.0891C46.7128 11.2048 46.476 11.333 46.3078 11.5313C46.1691 11.6988 46.0899 11.8873 46.0899 12.2132V24.9398C46.0899 25.2663 46.1691 25.4541 46.3078 25.6223C46.476 25.8199 46.7128 25.9481 47.0891 25.9481H48.0085C48.3841 25.9481 48.6216 25.8199 48.7898 25.6223C48.9279 25.4541 49.007 25.2663 49.007 24.9398V15.7434H49.0568C49.0568 15.7434 54.1588 24.7814 54.3669 25.1178C54.6535 25.5922 55.1377 25.9481 55.83 25.9481H57.4025C57.7781 25.9481 58.0156 25.8199 58.1838 25.6223C58.3218 25.4541 58.401 25.2663 58.401 24.9398V13.459H79.0578C79.266 13.459 79.4236 13.4002 79.5427 13.3014C79.671 13.1823 79.7305 13.0239 79.7305 12.787V11.9167C79.7305 11.6792 79.671 11.5208 79.5427 11.4024C79.4236 11.3036 79.266 11.2441 79.0578 11.2441H56.5125C56.137 11.2441 55.8994 11.373 55.7312 11.5706ZM64.7496 14.9719C61.3182 14.9719 59.3898 17.6522 59.3898 20.4804C59.3898 23.4963 61.4569 26.1465 64.7692 26.1465C66.4209 26.1465 68.0424 25.5235 68.9715 24.4255C69.3772 23.9511 69.7038 23.2882 69.7038 22.8832C69.7038 22.7444 69.6737 22.626 69.5952 22.537C69.516 22.4382 69.3969 22.3786 69.1895 22.3786H67.5974C67.2807 22.3786 67.0634 22.497 66.9051 22.7346C66.4405 23.4171 65.7678 23.7731 64.7791 23.7731C63.2956 23.7731 62.337 22.6456 62.2676 21.4095H69.1502C69.4564 21.4095 69.6736 21.3401 69.8222 21.1923C69.9904 21.0339 70.0696 20.8062 70.0696 20.3809C70.0696 19.0859 69.6639 17.7412 68.8139 16.7125C67.9436 15.674 66.6185 14.9719 64.7496 14.9719ZM75.3594 14.9719C72.6504 14.9719 70.8705 16.2578 70.8705 18.3144C70.8705 19.046 71.1375 19.6395 71.5726 20.1041C72.0772 20.6485 72.7989 21.0241 73.8472 21.2911L76.1113 21.8643C76.7342 22.0226 77.2878 22.2105 77.2878 22.7542C77.2878 23.5951 76.3979 23.8817 75.4491 23.8817C74.9838 23.8817 74.4996 23.7927 74.1037 23.5951C73.8269 23.4564 73.59 23.2587 73.4219 22.9918C73.2733 22.764 73.2243 22.5959 72.9965 22.4676C72.8578 22.3884 72.6896 22.3786 72.4625 22.3786H71.2363C70.9693 22.3786 70.8411 22.4578 70.7521 22.5664C70.6631 22.675 70.633 22.8334 70.633 22.9918C70.633 23.387 70.7717 23.8817 71.0983 24.3267C71.8494 25.335 73.4219 26.1465 75.4288 26.1465C77.4069 26.1465 80.1461 25.3252 80.1461 22.6751C80.1461 21.9932 79.9478 21.4095 79.582 20.9351C79.1174 20.3318 78.4552 19.9163 77.3277 19.6297L75.0833 19.0558C74.1534 18.8189 73.7182 18.6508 73.7182 18.0769C73.7182 17.5233 74.213 17.0783 75.3594 17.0783C76.0321 17.0783 76.6452 17.2269 77.0411 17.6424C77.367 17.9886 77.3081 18.1666 77.5653 18.3046C77.723 18.3838 77.9009 18.3838 78.1784 18.3838H79.2954C79.4734 18.3838 79.6023 18.3543 79.7004 18.245C79.7803 18.156 79.8293 18.018 79.8293 17.7903C79.8293 17.2759 79.493 16.6137 78.9002 16.1092C78.109 15.4267 76.8632 14.9719 75.3594 14.9719ZM81.5202 15.3482H80.9666C80.7592 15.3482 80.6008 15.4071 80.4824 15.5059C80.3535 15.625 80.2939 15.7834 80.2939 16.0202V16.7027C80.2939 16.9403 80.3535 17.0979 80.4824 17.2171C80.6008 17.3159 80.7592 17.3754 80.9666 17.3754H81.5202V22.3092C81.5202 23.5748 81.8664 24.3659 82.5089 24.9993C83.1024 25.5823 83.874 25.9481 85.2187 25.9481H86.0588C86.2669 25.9481 86.4246 25.8893 86.5437 25.7905C86.672 25.6714 86.7511 25.513 86.7511 25.2761V24.4157C86.7511 24.1781 86.672 24.0205 86.5437 23.9013C86.4246 23.8025 86.2669 23.743 86.0588 23.743H85.9404C85.4064 23.743 85.0407 23.6049 84.7933 23.3674C84.4969 23.0906 84.3483 22.6652 84.3483 22.1117V17.3754H86.1485C86.3559 17.3754 86.5143 17.3159 86.6327 17.2171C86.761 17.0979 86.8205 16.9403 86.8205 16.7027V16.0202C86.8205 15.7834 86.761 15.625 86.6327 15.5059C86.5143 15.4071 86.3559 15.3482 86.1485 15.3482H84.3581V12.1242C84.3581 11.867 84.279 11.6792 84.1605 11.5313C84.012 11.3534 83.8046 11.2441 83.4984 11.2441H82.3807C82.0737 11.2441 81.8663 11.3534 81.7178 11.5313C81.5994 11.6792 81.5202 11.867 81.5202 12.1242V15.3482ZM87.5724 25.068C87.5724 25.3252 87.6509 25.513 87.77 25.6615C87.9179 25.8395 88.126 25.9481 88.4322 25.9481H89.6087C89.9156 25.9481 90.1231 25.8395 90.2716 25.6615C90.39 25.513 90.4692 25.3252 90.4692 25.068V12.1248C90.4692 11.8677 90.39 11.6799 90.2716 11.5313C90.1231 11.3534 89.9156 11.2441 89.6087 11.2441H88.4322C88.126 11.2441 87.9179 11.3534 87.77 11.5313C87.6509 11.6799 87.5724 11.8677 87.5724 12.1248V25.068ZM62.2873 19.3031C62.4155 18.0867 63.3454 17.1771 64.7594 17.1771C66.1441 17.1771 67.1027 18.0867 67.2316 19.3031H62.2873ZM101.178 13.459C101.386 13.459 101.544 13.4002 101.663 13.3014C101.792 13.1823 101.851 13.0239 101.851 12.787V11.867C101.851 11.511 101.782 11.333 101.663 11.2048C101.554 11.0857 101.376 11.017 101.178 11.017C101.02 11.017 100.862 11.0366 100.595 11.0661L92.7038 11.8474C92.4768 11.867 92.3682 11.9364 92.289 12.0254C92.2 12.1242 92.1601 12.2531 92.1601 12.4311V12.9447C92.1601 13.143 92.2 13.232 92.2694 13.3112C92.3577 13.41 92.4866 13.459 92.6646 13.459H101.178ZM96.8178 14.9719C93.3863 14.9719 91.4579 17.6522 91.4579 20.4804C91.4579 23.4963 93.5251 26.1465 96.8374 26.1465C98.4891 26.1465 100.111 25.5235 101.04 24.4255C101.445 23.9511 101.772 23.2882 101.772 22.8832C101.772 22.7444 101.742 22.626 101.663 22.537C101.584 22.4382 101.465 22.3786 101.258 22.3786H99.6656C99.3489 22.3786 99.1316 22.497 98.9732 22.7346C98.5087 23.4171 97.836 23.7731 96.8472 23.7731C95.3638 23.7731 94.4045 22.6456 94.3358 21.4095H101.238C101.544 21.4095 101.762 21.3401 101.91 21.1923C102.078 21.0339 102.157 20.8062 102.157 20.3809C102.157 19.0859 101.752 17.7412 100.902 16.7125C100.031 15.674 98.6867 14.9719 96.8178 14.9719ZM94.3555 19.3031C94.4844 18.0867 95.4135 17.1771 96.8276 17.1771C98.2122 17.1771 99.1709 18.0867 99.2998 19.3031H94.3555ZM34.9374 13.5776C32.3777 9.75936 30.1283 8.47278 29.4956 7.86735C28.8005 7.19956 28.2707 6.44279 27.9337 6.07841C27.1839 5.25925 26.2134 4.2481 24.6171 4.2481C23.0762 4.2481 22.058 5.25226 21.7273 6.11976C21.6313 6.36712 21.5556 6.66981 21.4869 6.77982C21.3356 7.02788 20.6545 8.1904 20.3721 8.65148H21.6453L21.0259 9.821C21.7483 9.66264 22.264 9.54561 22.9522 9.54561C23.5646 9.54561 24.0047 9.69065 24.1974 10.0754C24.5554 10.7915 24.5554 12.9582 25.1609 14.5895C25.725 16.1227 27.1012 17.6229 28.6491 18.7721C28.6693 18.7858 28.6933 18.7929 28.7178 18.7924C28.7934 18.7924 28.8418 18.7378 28.8418 18.6824C28.8418 18.6411 28.8278 18.6138 28.7934 18.5794C27.4999 17.2859 26.4474 15.855 25.8833 14.2867C25.3255 12.7592 25.4152 10.6121 24.9268 9.65562C24.6031 9.02286 23.9157 8.85818 23.2822 8.85818C22.7735 8.85818 22.2984 8.96121 22.0784 9.00886L22.6354 8.06636H21.693C21.8927 7.71599 22.0987 7.39226 22.2024 7.19956C22.2914 7.03418 22.3264 6.82821 22.4364 6.54651C22.7938 5.64468 23.5849 5.07355 24.6171 5.07355C25.9107 5.07355 26.6674 5.90604 27.4172 6.7385C27.7613 7.12391 28.3254 7.92903 28.9791 8.52745C29.4262 8.94018 30.2797 9.40127 31.5936 10.7572C32.3503 11.5413 33.2312 12.5594 34.1596 13.9217C37.4832 18.7854 39.6639 23.0718 40.8817 26.4157L40.8614 26.4297C37.3732 24.0626 34.3523 21.8266 31.9173 19.0678C30.19 17.1072 28.6904 14.8368 27.3829 11.94C27.2932 11.7473 27.2182 11.5686 27.1355 11.3829C27.1012 11.3073 27.0668 11.2862 27.0115 11.2862C26.9428 11.2862 26.8945 11.3346 26.8945 11.4032C26.8945 11.4789 26.9288 11.6443 27.0045 11.9743C27.6996 14.9742 29.6259 17.6642 31.6833 19.9003C33.7336 22.123 36.0516 24.0353 37.9576 25.4255L39.4438 29.6769C39.4782 29.7806 39.5195 29.8906 39.5195 29.9936C39.5195 30.0693 39.4985 30.1309 39.4509 30.1723C39.4095 30.2136 39.3549 30.2347 39.2308 30.2347H38.7838C38.5911 30.2347 38.5147 30.2066 38.446 30.152C38.3773 30.0966 38.3297 30.0139 38.2947 29.9179C38.1643 29.5185 37.3795 27.2825 37.2288 26.8284C37.2008 26.7464 37.1525 26.7184 37.0978 26.7184C37.0824 26.7183 37.0672 26.7213 37.0529 26.7271C37.0387 26.733 37.0257 26.7416 37.0149 26.7524C37.004 26.7633 36.9953 26.7763 36.9895 26.7905C36.9836 26.8048 36.9807 26.82 36.9808 26.8354C36.9808 26.8908 37.0011 26.9525 37.0361 27.1452C37.2351 28.1633 37.4692 29.3055 37.5652 29.7392C37.6072 29.9382 37.6549 30.1247 37.6549 30.262C37.6549 30.3853 37.6276 30.4547 37.5246 30.5577L37.0635 31.0258C36.9534 31.1358 36.8911 31.1631 36.8021 31.1631C36.6921 31.1631 36.6024 31.0874 36.561 30.8947C36.0383 28.452 35.2472 25.4256 35.0405 24.5854C34.9921 24.4004 34.9578 24.2967 34.8478 24.2967C34.7518 24.2967 34.7174 24.3654 34.7174 24.448C34.7174 24.5097 34.7307 24.5854 34.7377 24.6407C34.8618 25.5075 35.3642 28.6657 35.9073 31.5485C36.004 32.0439 36.1896 32.3186 36.6164 32.3186C36.8091 32.3186 36.9941 32.2429 37.1665 32.0783C37.4489 31.7959 37.5309 31.7202 37.8686 31.3902C38.109 31.1561 38.2743 31.0601 38.6871 31.0601H39.7052C39.9463 31.0601 40.0766 30.9985 40.1936 30.8878C40.3036 30.7847 40.3723 30.6404 40.3723 30.4337C40.3723 30.2206 40.3176 30.049 40.242 29.8352C39.9806 29.1338 39.1411 26.7597 38.8931 26.0926L38.9141 26.0786C39.7739 26.7324 41.0261 27.5649 41.5769 27.5649C41.7485 27.5649 41.8523 27.4892 41.8523 27.2208C41.8523 25.9553 39.7466 20.7468 34.9374 13.5776ZM11.318 5.5828C11.4624 5.26607 11.7791 5.046 12.1575 5.046C12.6732 5.046 13.086 5.44545 13.086 5.9752C13.086 6.28423 12.9416 6.5533 12.7146 6.71798C12.7629 6.89736 12.7973 7.055 12.7973 7.20636C12.7973 7.78446 12.4532 8.19021 11.8205 8.40393C11.7378 8.7543 11.5864 9.07099 11.3384 9.30504C10.9256 9.70375 10.5059 9.70379 10.5059 9.86916C10.5059 9.95885 10.5683 10.0135 10.7399 10.0135C11.5037 10.0135 12.2535 9.58747 12.3432 8.87833C13.0727 8.63097 13.5127 7.89448 13.5127 7.31007C13.5127 7.15801 13.4987 7.02769 13.437 6.90436C13.6367 6.71096 13.8708 6.3809 13.8708 5.89249C13.8708 5.46574 13.6844 5.03273 13.3543 4.716C13.0656 4.4336 12.6592 4.24789 12.1848 4.24789C11.4967 4.24789 11.0496 4.61999 10.7953 4.98437C10.0448 4.98437 9.075 5.81681 9.075 7.00735H8.97199C8.90261 6.59462 8.47658 6.31856 8.11851 6.29824C7.82981 5.43144 7.17601 4.68867 6.1025 4.68867C5.97917 4.68867 5.82783 4.69567 5.69679 4.716C5.38076 4.42659 5.02968 4.24789 4.54127 4.24789C3.6051 4.24789 2.84131 4.99836 2.84131 5.94715C2.84131 6.53926 3.10968 6.94498 3.61911 7.30306C3.61911 7.30306 3.61212 7.37877 3.61212 7.4131C3.61212 8.16989 4.43757 9.35341 5.66245 9.35341C5.66245 9.54541 5.90349 9.80748 6.17187 9.85513V9.95184H6.06818C4.38292 9.95184 3.66746 10.764 3.66746 11.307C3.16504 11.5137 2.84131 12.0708 2.84131 12.5866C2.84131 13.6118 3.59178 14.3412 4.58261 14.3412C4.91265 14.3412 5.24971 14.2108 5.48376 14.0315C5.65544 14.0931 5.87546 14.1275 6.1025 14.1275C6.57759 14.1275 7.10736 13.9628 7.47874 13.419C7.5341 13.4261 7.58174 13.4261 7.6371 13.4261C8.24253 13.4261 8.76526 13.0266 9.04065 12.5039C9.10932 12.3735 9.13667 12.2706 9.13667 12.1942C9.13667 12.1192 9.10232 12.0568 9.02664 12.0568C8.93064 12.0568 8.91662 12.1465 8.74495 12.3049C8.35954 12.6559 7.76743 12.7863 7.162 12.7863C6.86629 13.22 6.50192 13.4471 6.08218 13.4471C5.77246 13.4471 5.5321 13.3644 5.28405 13.199C5.08434 13.419 4.83698 13.5087 4.59593 13.5087C4.05287 13.5087 3.66746 13.1303 3.66746 12.5796C3.66746 12.1942 3.91483 11.8508 4.25889 11.7198C4.32056 11.0387 5.05001 10.5776 5.95815 10.5776C6.07517 10.5776 6.19219 10.5846 6.31621 10.5986C6.45356 10.3786 6.78362 10.1445 7.2517 10.0822C7.3484 10.0688 7.42339 10.0618 7.47874 10.0345C7.5341 10.0065 7.56142 9.95184 7.56142 9.88948C7.56142 9.83482 7.54039 9.78644 7.48574 9.7521C7.43739 9.72478 7.3547 9.71149 7.2587 9.69047C6.82495 9.60779 6.30921 9.33939 6.04784 8.68561C5.00866 8.68561 4.24486 7.85314 4.24486 6.91767V6.85599C3.9008 6.71795 3.66746 6.38793 3.66746 5.99552C3.66746 5.47978 4.07318 5.06705 4.58892 5.06705C4.89864 5.06705 5.16703 5.21839 5.33941 5.44542C5.48376 5.40408 5.64843 5.39008 5.80679 5.39008C6.57759 5.39008 7.40305 5.87849 7.56142 6.82798C8.55225 6.91767 8.78629 7.75716 8.84795 8.10823C8.88229 8.28691 8.90962 8.43824 9.02664 8.43824C9.15067 8.43824 9.178 8.30021 9.21934 8.11452C9.29502 7.76415 9.42606 7.48177 9.68743 7.26174C9.68743 6.3599 10.3615 5.5828 11.318 5.5828ZM13.32 10.9767C12.9963 11.4378 12.7629 11.6648 12.0265 12.5316C11.0567 13.6808 10.5472 14.61 9.70075 16.6736C9.83879 16.6596 10.0385 16.6463 10.2585 16.6463C10.3685 16.6463 10.4575 16.6463 10.6026 16.6526L10.7056 16.4326C11.1807 15.4144 11.8198 14.0382 12.7146 12.9787L13.0243 12.6143C13.9458 11.5345 14.5169 10.894 14.8749 9.4218C14.999 8.89905 15.102 8.43165 15.453 8.0939C15.7691 7.79119 16.1685 7.66086 16.5742 7.66086C16.9183 7.66086 17.1733 7.74356 17.5447 7.90123C17.8818 8.04558 18.0051 8.07359 18.3632 8.07359C18.4872 8.07359 18.5762 8.06656 18.6589 8.05956L18.1775 8.70636L18.8313 9.16745C18.0121 9.4078 17.5791 10.1996 17.434 10.564C17.4067 10.6397 17.3934 10.688 17.3934 10.7363C17.3934 10.7917 17.4207 10.8464 17.5034 10.8464C17.5924 10.8464 17.661 10.7777 17.7781 10.6396C18.1775 10.1582 18.4942 9.82752 19.9657 9.36714L18.9272 8.58232L19.7114 7.43385H18.9756C18.5075 7.43385 18.1978 7.42682 17.7921 7.24113C17.2413 6.98676 16.9596 6.87674 16.4712 6.87674C15.8728 6.87674 15.329 7.08976 14.8819 7.50249C14.3655 7.97688 14.2071 8.61034 14.0221 9.30547C13.8771 9.84152 13.7054 10.4336 13.32 10.9767Z" fill="#282943" fill-opacity="0.6"/>
<path d="M14.9025 15.6621C14.5101 16.1918 13.9734 16.8862 13.5606 17.6227C13.6917 17.685 14.1254 17.9191 14.2768 18.0011C14.7511 17.2857 15.4119 16.4056 15.845 15.7378C16.2374 15.1323 16.3958 14.8709 16.4231 14.0588C16.4301 13.9214 16.4301 13.7904 16.4434 13.6601C16.4777 13.2403 16.5885 12.8136 16.9872 12.4219C17.2829 12.1255 17.7096 11.9748 18.1364 11.9748C18.5491 11.9748 18.7895 12.0911 19.1475 12.0911C19.4019 12.0911 19.5876 12.0295 19.753 11.9678L19.884 11.9195L19.5673 12.6769L20.31 12.979C19.8356 13.2747 18.7965 14.5479 18.7965 16.0545C18.7965 16.5982 18.8792 17.1 18.9962 17.547C19.0102 17.5954 19.0375 17.6437 19.1132 17.6437C19.1819 17.6437 19.2302 17.6024 19.2372 17.5267L19.2442 17.3683C19.2646 16.9072 19.2989 16.1785 19.4846 15.5247C19.7943 14.4239 20.6268 13.3917 21.4592 12.8963L20.2757 12.3806L20.7851 11.1353L20.2281 11.2524C19.891 11.3211 19.643 11.3827 19.3472 11.3827C19.1545 11.3827 18.9345 11.3554 18.6731 11.293C18.4734 11.2454 18.2597 11.204 17.9577 11.204C17.4139 11.204 16.8288 11.41 16.4301 11.7954C15.7007 12.4906 15.6593 13.2403 15.611 13.9081C15.5493 14.7953 15.3839 15.0153 14.9025 15.6621ZM32.557 16.0817C32.5086 16.02 32.4673 15.992 32.4126 15.992C32.3299 15.992 32.2886 16.0473 32.2886 16.109C32.2886 16.2057 32.3573 16.3227 32.5296 16.6121C33.0524 17.4992 33.6992 18.3934 34.4973 19.2335C35.3571 20.148 36.3682 21.0008 37.4488 21.7646L37.7858 21.9986C37.8342 22.0336 37.8685 22.054 37.9098 22.054C37.9785 22.054 38.0269 21.9853 38.0269 21.93C38.0269 21.8956 38.0129 21.8606 37.9715 21.8262C36.9674 20.9118 35.8868 19.7969 34.8757 18.7241C34.0839 17.8776 33.2724 16.9835 32.557 16.0817ZM10.4167 12.9652C10.5197 12.7935 10.8295 12.3737 10.9535 12.2427C10.4237 11.1699 9.55694 10.1447 9.17854 9.73832L8.86179 10.048C9.22687 10.5778 9.83863 11.6029 10.4167 12.9652ZM5.37365 6.75256C5.31129 6.6972 5.29797 6.66286 5.29797 6.62152C5.29797 6.57387 5.33229 6.51853 5.40797 6.51853C5.4353 6.51853 5.46264 6.52551 5.49768 6.53953C6.00641 6.74554 6.44015 6.98659 6.82556 7.2823C7.14859 7.52966 7.46532 7.83309 7.77435 8.19747L7.48563 8.52752C7.12826 8.23112 5.97207 7.26199 5.37365 6.75256ZM10.2516 9.05735L9.88023 8.83029C10.1206 8.25919 10.417 7.73647 10.7674 7.34406C11.0154 7.06237 11.2495 6.83464 11.5108 6.6083C11.5725 6.55995 11.6068 6.51857 11.6685 6.51857C11.7379 6.51857 11.7862 6.57396 11.7862 6.62862C11.7862 6.65595 11.7722 6.69026 11.7449 6.73161C11.3251 7.38539 10.506 8.67895 10.2516 9.05735ZM5.587 12.2496C5.49731 12.2839 5.45599 12.3049 5.40834 12.3049C5.33266 12.3049 5.29761 12.2426 5.29761 12.1942C5.29761 12.1466 5.31863 12.1192 5.36698 12.0772C6.21276 11.4171 6.95625 11.1557 7.98141 10.9834L8.10474 11.3968L5.587 12.2496ZM23.2343 6.91094C23.2343 6.66989 23.3583 6.23612 23.8054 6.23612C23.9568 6.23612 24.1011 6.27045 24.2182 6.32581C24.3835 6.40149 24.4935 6.51151 24.4935 6.62853C24.4935 6.75256 24.3695 6.87659 24.1838 7.02795C23.9911 7.18562 23.7438 7.33067 23.5441 7.33067C23.3037 7.33067 23.2343 7.10294 23.2343 6.91094ZM16.2511 8.91976C16.2511 8.62405 16.4297 8.30033 16.7738 8.30033C16.9252 8.30033 17.1039 8.36199 17.2349 8.48672C17.3106 8.55539 17.3449 8.63039 17.3449 8.70677C17.3449 8.87214 17.1865 9.02979 17.0008 9.13981C16.8565 9.22249 16.7051 9.27786 16.5748 9.27786C16.3611 9.27786 16.2511 9.14609 16.2511 8.91976Z" fill="#282943" fill-opacity="0.6"/>
<path d="M17.8679 13.1648C17.8679 13.0962 17.8749 13.0134 17.9022 12.9308C17.9576 12.7521 18.0739 12.5797 18.3633 12.5797C18.4943 12.5797 18.638 12.6141 18.755 12.6974C18.8587 12.7661 18.9 12.8551 18.9 12.9448C18.9 13.2405 18.4046 13.5846 18.1566 13.5846C17.9779 13.5846 17.8679 13.4122 17.8679 13.1648ZM15.1571 21.8473C14.2286 21.8473 13.8152 21.4072 13.8152 20.8501C13.8152 19.8726 15.5285 18.9168 17.0694 18.3247L17.4688 18.8411C16.5193 19.2188 14.607 20.0317 14.607 20.7331C14.607 20.9805 14.7514 21.1599 15.3288 21.1599C16.3336 21.1599 17.4141 20.6708 18.4113 20.1823C18.487 20.148 18.5767 20.1137 18.6593 20.1137C18.7897 20.1137 18.8724 20.155 18.9684 20.2923L19.1337 20.5194C17.9712 21.1599 16.5193 21.8473 15.1571 21.8473Z" fill="#282943" fill-opacity="0.6"/>
<path d="M17.7165 22.109C16.8084 22.6177 15.8659 22.9555 15.0334 22.9555C14.1042 22.9555 13.2788 22.556 12.5907 21.5168C12.302 21.0768 12.0749 20.5267 11.7996 20.0383C11.4695 19.4602 11.1114 19.1505 10.4857 19.1505C9.91459 19.1505 9.3568 19.3845 8.76538 19.6389L8.79271 19.7699C8.84106 19.983 8.92375 20.1343 9.12276 20.1343C9.21245 20.1343 9.30213 20.0937 9.35048 20.0797C9.68053 19.976 9.92089 19.8863 10.2586 19.8863C10.7744 19.8863 11.0217 20.1897 11.3728 20.9325L11.5038 21.2078C11.1458 21.3319 10.3063 21.3935 9.68053 21.3935H9.38483L9.43318 21.6893C9.4535 21.8133 9.50185 21.9163 9.60485 21.9646C9.72818 22.0263 9.90756 22.0333 10.2173 22.0333C11.0014 22.0333 11.5725 21.9373 11.9025 21.8539C12.749 23.1138 13.9115 23.5952 15.0334 23.5952C15.9892 23.5952 16.9597 23.2442 17.8889 22.7354L17.7165 22.109ZM18.652 22.4186L18.4873 21.7851C19.9042 21.022 21.1977 20.4096 23.2621 20.2099C23.3034 21.001 23.2481 21.9988 23.8332 21.9988C24.3692 21.9988 25.5387 20.6156 26.8876 18.882C27.0117 18.999 27.2107 19.123 27.3901 19.2604L27.046 19.7075C25.7315 21.4004 24.6103 22.8453 23.6881 22.8453C22.8283 22.8453 22.5046 21.8335 22.4913 21.0767C21.1774 21.2077 19.9385 21.6477 18.652 22.4186ZM36.857 8.61011C36.3202 8.61011 36.1689 8.3137 36.1689 7.89467C36.1689 7.02786 36.7127 5.78267 37.0567 5.07353H36.2235C35.7905 5.913 34.0842 8.6031 33.162 9.71796L33.6918 10.2884C34.1872 9.7383 34.731 8.80284 35.3224 7.88068H35.4324C35.4324 7.92903 35.4261 7.98369 35.4261 8.03204C35.4261 8.80985 35.8248 9.38722 36.8087 9.38722C37.4141 9.38722 38.3636 9.0845 39.2584 8.78178C40.0012 8.52742 40.6823 8.26606 41.0193 8.17006V7.34461C40.6339 7.46093 39.8498 7.76363 39.0377 8.04603C38.1849 8.34173 37.3454 8.61011 36.857 8.61011ZM38.6938 11.1074C39.5193 10.7571 40.9985 10.165 41.852 9.85525V9.01577C40.1387 9.64923 37.1319 10.8945 35.0815 12.0093C35.1369 12.0773 35.495 12.5797 35.5356 12.642C36.4024 12.284 37.1802 12.0499 37.8817 12.0499C38.8662 12.0499 39.6706 12.0499 41.0196 11.7332V11.1004C40.2628 11.2385 39.4576 11.4031 38.9349 11.4031C38.6252 11.4031 38.5355 11.3618 38.5355 11.2588C38.5355 11.1971 38.5768 11.1558 38.6938 11.1074Z" fill="#282943" fill-opacity="0.6"/>
<path d="M21.0676 14.9732L20.7368 15.6067H24.2531L23.9917 14.9732H21.0676Z" fill="#282943" fill-opacity="0.6"/>
</svg>
