<svg width="146" height="35" viewBox="0 0 146 35" fill="none" xmlns="http://www.w3.org/2000/svg">
<path fill-rule="evenodd" clip-rule="evenodd" d="M37.4733 22.2901H40.852C42.1704 22.2901 42.6717 22.745 42.6717 23.8593C42.6717 24.9322 42.1701 25.3866 40.852 25.3866H37.473L37.4733 22.2901ZM32.2386 33.5601H37.4735V28.9773H43.0807C46.7932 28.9773 48.1296 26.7904 48.1296 23.963C48.1296 20.6809 46.7552 18.8236 43.0427 18.8236H32.2386V33.5601ZM63.9455 22.4141H55.0912V24.3956H63.3153V27.9876H55.0912V29.9688H63.9455V33.5601H49.8562V18.8236H63.9452L63.9455 22.4141ZM71.3717 22.2901H74.7504C76.0685 22.2901 76.5701 22.745 76.5701 23.8593C76.5701 24.9322 76.0685 25.3866 74.7504 25.3866H71.3717V22.2901ZM66.1367 33.5601H71.3717V28.9773H76.9779C80.6913 28.9773 82.0282 26.7904 82.0282 23.963C82.0282 20.6809 80.6538 18.8236 76.9406 18.8236H66.1367V33.5601ZM87.0953 27.3062C84.5339 26.8721 83.4764 25.221 83.4764 23.1576C83.4764 19.3386 86.8364 18.3076 91.1422 18.3076C97.0451 18.3076 99.4775 20.02 99.6633 23.1371H93.5741C93.5741 22.5383 93.2584 22.1661 92.7766 21.9599C92.3122 21.7335 91.7186 21.6511 91.1425 21.6511C89.5829 21.6511 89.0453 22.0839 89.0453 22.7037C89.0453 23.1158 89.2117 23.3851 89.7315 23.4672L95.9874 24.4988C98.6239 24.9322 100.258 26.2944 100.258 28.7912C100.258 32.3837 97.6215 34.0761 91.7364 34.0761C87.7082 34.0761 83.3083 33.4571 83.29 29.1226H89.6017C89.6194 29.6174 89.7873 29.9475 90.1591 30.1747C90.5478 30.3814 91.1237 30.4849 91.9402 30.4849C93.5733 30.4849 94.0196 29.9891 94.0196 29.2872C94.0196 28.8538 93.7779 28.4207 93.0737 28.2975L87.0953 27.3062ZM107.199 33.5601H101.965V18.8236H107.2L107.199 33.5601ZM126.6 27.8222C126.266 29.7624 125.671 31.3311 124.371 32.404C123.092 33.4774 121.086 34.0761 117.894 34.0761C114.719 34.0761 108.834 33.8278 108.834 26.1922C108.834 18.5551 114.719 18.3073 117.894 18.3073C121.049 18.3073 125.913 18.761 126.6 24.6028H120.697C120.548 23.5491 119.916 22.0221 117.894 22.0221C115.758 22.0221 114.403 23.1984 114.403 26.192C114.403 29.1847 115.721 30.3604 117.633 30.3604C119.286 30.3604 120.27 29.5968 120.696 27.822H126.6V27.8222ZM133.45 26.1925C133.45 23.1987 134.806 22.0226 136.941 22.0226C139.075 22.0226 140.431 23.1989 140.431 26.1925C140.431 29.1853 139.075 30.3609 136.941 30.3609C134.806 30.3606 133.45 29.185 133.45 26.1925ZM127.88 26.1925C127.88 33.8278 133.765 34.0763 136.94 34.0763C140.115 34.0763 146 33.8281 146 26.1925C146 18.5553 140.115 18.3076 136.94 18.3076C133.765 18.3076 127.88 18.5551 127.88 26.1925H127.88ZM24.3283 18.9697C24.6664 11.8996 18.5692 3.93758 10.2571 2.95343L10.2713 2.85681C18.4658 2.85681 24.7478 10.443 24.7478 16.4278C24.7399 17.6736 24.6413 18.4455 24.466 19.006L24.3283 18.9697ZM23.8318 19.8684C23.2866 20.5345 22.6009 21.2053 21.7976 21.842C20.3195 13.3422 14.0735 5.90969 9.65784 3.74029L9.56325 3.80622C14.0042 7.45096 19.3008 14.5297 21.3609 22.1755C20.3102 22.9473 19.1753 23.5973 17.9779 24.1128C13.7872 19.3338 9.88023 10.1171 8.62119 4.2685L8.49313 4.30705C8.52153 9.98425 12.5522 19.6219 17.4674 24.3246C16.3401 24.7707 15.1682 25.0945 13.9718 25.2905C9.25997 23.4239 5.90583 17.4454 5.90583 11.3211C5.90583 7.32316 7.1248 4.84997 7.36063 4.34382L7.26022 4.30401C6.97494 4.7356 5.18921 7.20752 5.18921 11.5237C5.18921 18.4463 8.60319 23.7375 13.1357 25.4038C11.5149 25.5821 9.87612 25.5052 8.27911 25.1759L8.24538 25.2814C8.73023 25.4599 10.3752 26.1504 12.8847 26.1504C18.5606 26.1504 22.3976 22.6238 23.9421 19.9432L23.8318 19.8684Z" fill="#282943" fill-opacity="0.6"/>
<path fill-rule="evenodd" clip-rule="evenodd" d="M12.3175 0.358765C8.01476 0.358765 2.96948 3.46413 2.96948 6.30273C2.96948 7.40075 3.97367 8.32835 6.05279 8.32835C10.8785 8.32835 15.3623 5.01276 15.3623 2.43459C15.3621 1.07792 14.0594 0.358765 12.3175 0.358765ZM14.0353 2.35446C14.0353 4.52766 9.8621 7.18419 6.37357 7.18419C4.8323 7.18419 3.99953 6.57762 3.99953 5.57673C3.99953 3.37234 8.22016 0.760946 11.4924 0.760946C13.6258 0.760946 14.0353 1.84653 14.0353 2.35446Z" fill="#282943" fill-opacity="0.6"/>
<path fill-rule="evenodd" clip-rule="evenodd" d="M1.2552 7.61705C1.13424 7.82626 0.649902 8.77466 0.649902 9.74638C0.649902 11.5486 2.47062 13.2217 5.82019 13.2217C12.2635 13.2217 19.7076 8.47898 19.7076 4.07654C19.7076 2.10037 17.837 1.02594 16.5379 0.803802L16.5138 0.880892C16.9177 1.0087 18.3976 1.69667 18.3976 3.45703C18.3976 6.96484 11.8248 11.7444 5.27803 11.7444C2.77163 11.7444 1.19257 10.5071 1.19257 8.70492C1.19257 8.13487 1.31125 7.75931 1.34269 7.65053L1.2552 7.61705Z" fill="#282943" fill-opacity="0.6"/>
<path fill-rule="evenodd" clip-rule="evenodd" d="M22.3642 4.4057C22.5409 4.53985 23.6022 5.42434 23.6022 7.09697C23.6022 12.8 14.6664 18.408 6.76657 18.408C2.05552 18.408 -0.0920723 16.0819 0.00302104 14.0165H0.087464C0.272072 15.0891 1.80168 17.0085 5.92493 17.0085C13.8347 17.0085 22.6662 11.2058 22.6662 6.12169C22.6662 5.24962 22.4293 4.7062 22.2954 4.46453L22.3642 4.4057Z" fill="#282943" fill-opacity="0.6"/>
<path fill-rule="evenodd" clip-rule="evenodd" d="M25.3507 9.72989C25.388 9.85135 25.5804 10.3973 25.5804 11.2524C25.5804 17.5965 16.5374 23.0277 8.67256 23.0277C4.62463 23.0277 2.51051 21.0615 2.06421 20.2629L2.13648 20.2097C3.25655 21.1893 5.46272 21.9335 8.03734 21.9335C14.9835 21.9335 25.3481 16.6489 25.2556 9.75296L25.3507 9.72989Z" fill="#282943" fill-opacity="0.6"/>
</svg>
