<svg width="16" height="16" viewBox="0 0 16 16" fill="none" xmlns="http://www.w3.org/2000/svg">
<path d="M15.3334 2.0067C15.3334 2.0067 13.9882 2.80144 13.2401 3.0267C12.8386 2.56504 12.305 2.23783 11.7114 2.08932C11.1179 1.94081 10.4931 1.97817 9.92147 2.19634C9.34986 2.41451 8.85904 2.80297 8.5154 3.30918C8.17176 3.81539 7.99188 4.41493 8.00008 5.0267V5.69337C6.8285 5.72375 5.6676 5.46391 4.62075 4.937C3.57391 4.41009 2.67363 3.63246 2.00008 2.67337C2.00008 2.67337 -0.666585 8.67337 5.33342 11.34C3.96043 12.272 2.32485 12.7393 0.666748 12.6734C6.66675 16.0067 14.0001 12.6734 14.0001 5.0067C13.9995 4.82101 13.9816 4.63577 13.9467 4.45337C14.6272 3.78237 15.3334 2.0067 15.3334 2.0067Z" stroke="white" stroke-linecap="round" stroke-linejoin="round"/>
</svg>
